# xmcd CD database file
#
# Track frame offsets:
#	150
#	18215
#	39815
#	68540
#	100135
#	127255
#	158000
#	164545
#	197670
#	215855
#	241815
#	263845
#	284715
#
# Disc length: 4073 seconds
#
# Revision: 0
# Processed by: cddbd v1.5.1PL0 Copyright (c) Steve Scherf et al.
# Submitted via: CDex 1.50beta10
#
DISCID=b60fe70d
DTITLE=Ernie Williams - Mustang Sally
DYEAR=1900
DGENRE=Blues
TTITLE0=Silent Shooters
TTITLE1=I Remember
TTITLE2=Love is Over
TTITLE3=Searching for Salvation
TTITLE4=Love of Gold
TTITLE5=So Long
TTITLE6=Hambone
TTITLE7=Sister
TTITLE8=Time to Move On
TTITLE9=Can't Shake That Woman
TTITLE10=It's Late
TTITLE11=World I Used to Know
TTITLE12=Mustang Sally
EXTD=
EXTT0=
EXTT1=
EXTT2=
EXTT3=
EXTT4=
EXTT5=
EXTT6=
EXTT7=
EXTT8=
EXTT9=
EXTT10=
EXTT11=
EXTT12=
PLAYORDER=
